<svg xmlns="http://www.w3.org/2000/svg" width="1200" height="630" viewBox="0 0 1200 630">
  <defs><linearGradient id="g" x1="0" y1="0" x2="1" y2="1"><stop stop-color="#3a1f12"/><stop offset="1" stop-color="#fb923c"/></linearGradient></defs>
  <rect width="1200" height="630" fill="url(#g)"/><circle cx="1020" cy="90" r="250" fill="#fff" opacity=".08"/><circle cx="180" cy="610" r="330" fill="#fff" opacity=".06"/>
  <path d="M760 0h440v630H720c76-84 112-193 112-315S836 84 760 0Z" fill="#000" opacity=".12"/><g transform="translate(900 170)" fill="none" stroke="#fb923c" stroke-width="12" stroke-linecap="round" stroke-linejoin="round" opacity=".92"><path d="M120 28v168M62 196h116M54 50h132M42 54 8 126h68L42 54Zm156 0-34 72h68l-34-72Z"/><path d="M82 126h-68m172 0h-68"/></g>
  <rect x="70" y="68" width="108" height="108" rx="28" fill="#fff" opacity=".96"/><text x="124" y="141" text-anchor="middle" font-family="Arial,sans-serif" font-size="42" font-weight="800" fill="#3a1f12">ATA</text>
  <text x="70" y="258" font-family="Arial,sans-serif" font-size="22" font-weight="700" letter-spacing="4" fill="#fff" opacity=".8">PRESENÇA DIGITAL</text>
  <text x="70" y="350" font-family="Arial,sans-serif" font-size="58" font-weight="800" fill="#fff">Almeida Torres Advocacia</text>
  <text x="70" y="414" font-family="Arial,sans-serif" font-size="25" fill="#fff" opacity=".92">advocacia · consultoria</text>
  <text x="70" y="470" font-family="Arial,sans-serif" font-size="18" font-weight="700" letter-spacing="3" fill="#fff" opacity=".7">JURIDICO</text>
  <text x="70" y="530" font-family="Arial,sans-serif" font-size="24" font-weight="700" fill="#fff" opacity=".8">São Paulo — SP</text>
  </svg>