<svg xmlns="http://www.w3.org/2000/svg" viewBox="0 0 1200 900" role="img" aria-label="Arte editorial contextual de unhas e cílios">
<defs><linearGradient id="g" x1="0" x2="1" y1="0" y2="1"><stop stop-color="#f9cad8"/><stop offset=".52" stop-color="#ef8caf"/><stop offset="1" stop-color="#5f2942"/></linearGradient></defs><rect width="1200" height="900" rx="52" fill="#160d13"/><rect x="50" y="50" width="1100" height="800" rx="42" fill="url(#g)" opacity=".92"/>
<g transform="translate(120 110)"><rect width="270" height="620" rx="135" fill="#fff1f6" transform="rotate(-9 135 310)"/><rect x="238" y="25" width="270" height="620" rx="135" fill="#ffd0df" transform="rotate(4 373 335)"/><rect x="480" y="70" width="270" height="590" rx="135" fill="#f59ab9" transform="rotate(14 615 365)"/></g>
<g fill="none" stroke="#241018" stroke-linecap="round"><path d="M720 250c105-82 236-70 338 12" stroke-width="24"/><path d="M746 242l-32-45M788 215l-19-51M835 197l-5-55M886 193l11-55M936 203l27-51M983 221l40-43M1020 246l49-30" stroke-width="13"/></g>
<circle cx="920" cy="600" r="130" fill="#fff8fb" opacity=".22"/><circle cx="1010" cy="690" r="70" fill="#7d5cff" opacity=".2"/>
</svg>