<svg xmlns="http://www.w3.org/2000/svg" width="1200" height="630" viewBox="0 0 1200 630" role="img" aria-labelledby="t d">
<title id="t">Arildo Madeiras em Pinhais</title>
<desc id="d">Arte social editorial da 0WEB com linguagem de camadas de madeira.</desc>
<defs>
  <linearGradient id="bg" x1="0" y1="0" x2="1" y2="1"><stop stop-color="#151310"/><stop offset=".7" stop-color="#352116"/><stop offset="1" stop-color="#5d351e"/></linearGradient>
  <pattern id="g" width="120" height="80" patternUnits="userSpaceOnUse"><path d="M0 18C25 2 72 30 120 12M0 54C28 34 78 70 120 48" fill="none" stroke="#e0b176" stroke-opacity=".14" stroke-width="3"/></pattern>
</defs>
<rect width="1200" height="630" fill="url(#bg)"/><rect width="1200" height="630" fill="url(#g)"/>
<rect x="720" y="0" width="480" height="630" fill="#b22d21" opacity=".92"/>
<rect x="90" y="92" width="710" height="60" fill="#c9945a"/>
<rect x="120" y="164" width="680" height="60" fill="#ead8bb"/>
<text x="110" y="133" font-family="Arial,sans-serif" font-weight="900" font-size="25" letter-spacing="6" fill="#24170f">ATACADO &amp; VAREJO</text>
<text x="140" y="205" font-family="Arial,sans-serif" font-weight="900" font-size="25" letter-spacing="6" fill="#24170f">PINHAIS · PR</text>
<text x="88" y="366" font-family="Georgia,serif" font-weight="700" font-size="84" fill="#fff">Arildo Madeiras</text>
<text x="92" y="427" font-family="Arial,sans-serif" font-size="28" fill="#ead8bb">Madeiras brutas e beneficiadas para obra, reforma e projetos.</text>
<text x="760" y="216" font-family="Arial,sans-serif" font-weight="900" font-size="25" fill="#fff" letter-spacing="4">MADEIRAS</text>
<text x="760" y="275" font-family="Arial,sans-serif" font-weight="900" font-size="25" fill="#fff" letter-spacing="4">PORTAS</text>
<text x="760" y="334" font-family="Arial,sans-serif" font-weight="900" font-size="25" fill="#fff" letter-spacing="4">JANELAS</text>
<text x="760" y="393" font-family="Arial,sans-serif" font-weight="900" font-size="25" fill="#fff" letter-spacing="4">FORROS</text>
<text x="760" y="452" font-family="Arial,sans-serif" font-weight="900" font-size="25" fill="#fff" letter-spacing="4">CAMBARÁ</text>
<rect x="90" y="505" width="560" height="8" fill="#c9945a"/>
<text x="90" y="555" font-family="Arial,sans-serif" font-size="21" fill="#fff" opacity=".68">Arte editorial 0WEB · marca oficial preservada na página</text>
</svg>